<svg xmlns="http://www.w3.org/2000/svg" viewBox="0 0 343 123.2"><defs><style>.cls-1{fill:none;stroke:#ffffff;stroke-miterlimit:10;stroke-width:12px;}.cls-2{fill:#ffffff;}</style></defs><g id="레이어_2" data-name="레이어 2"><g id="레이어_1-2" data-name="레이어 1"><rect class="cls-1" x="6" y="6" width="331" height="111.2" rx="51.23"/><path class="cls-2" d="M61.39,22.89H72.73c4.32,0,5.49,2.16,4.59,6.31L62.56,95.64c-.81,3.51-2.43,5.58-7.83,5.58H43.11c-4,0-5.13-2.34-4.23-6.3L53.55,28.48C54.37,25,56,22.89,61.39,22.89Zm29.53,0h11.34c4.32,0,5.49,2.16,4.59,6.31L92.36,95.64c-.81,3.51-2.43,5.58-7.84,5.58H73.27c-4,0-6-1.53-5.13-5.49L83.08,28.48C83.89,25,85.51,22.89,90.92,22.89Zm36.19,78.33H115.85c-5.4,0-7-2.07-7.83-5.58l-3.87-17.47c-1.17-5.31-1.17-7.56.09-13.5l6.21-28.54c.54-2.43,1.71-4,4.32-4s3.69,1.53,4.23,4l13.24,59.6C133.14,99.69,131.16,101.22,127.11,101.22Z"/><path class="cls-2" d="M158.08,22.89h11.35c4.32,0,5.49,2.16,4.59,6.31L159.25,95.64c-.81,3.51-2.43,5.58-7.83,5.58H139.81c-4.05,0-5.13-2.34-4.23-6.3l14.67-66.44C151.06,25,152.68,22.89,158.08,22.89Zm29.53,0H199c4.32,0,5.49,2.16,4.59,6.31l-14.5,66.44c-.81,3.51-2.43,5.58-7.83,5.58H170c-4.05,0-6-1.53-5.13-5.49l14.94-67.25C180.59,25,182.21,22.89,187.61,22.89Zm36.19,78.33H212.55c-5.4,0-7-2.07-7.83-5.58l-3.87-17.47c-1.17-5.31-1.17-7.56.09-13.5l6.21-28.54c.54-2.43,1.71-4,4.32-4s3.69,1.53,4.23,4l13.23,59.6C229.83,99.69,227.85,101.22,223.8,101.22Z"/><path class="cls-2" d="M232.54,48.55v-3c0-12.33,7.65-22.69,22.42-22.69h42.85A2.72,2.72,0,0,1,300.87,26V38.2a2.72,2.72,0,0,1-3.06,3.06H257.3a3.69,3.69,0,0,0-4.05,4.05v3.06a3.69,3.69,0,0,0,4.05,4.05h24.13c14.76,0,22.41,10.36,22.41,22.69v3.42c0,12.33-7.65,22.69-22.41,22.69H238.57a2.72,2.72,0,0,1-3.06-3.06V85.91a2.72,2.72,0,0,1,3.06-3.06h40.52a3.69,3.69,0,0,0,4.05-4v-4a3.69,3.69,0,0,0-4.05-4H255C240.19,70.7,232.54,60.89,232.54,48.55Z"/></g></g></svg>